# xmcd
#
# Track frame offsets: 
#        150
#        2324
#        32040
#        47637
#        68092
#        86864
#        106760
#        122523
#        124151
#        138366
#        149497
#        172181
#        183648
#        193050
#        225423
#
# Disc length: 3085 seconds
#
# Revision: 2
# Processed by: cddbd v1.5.1PL2 Copyright (c) Steve Scherf et al.
# Submitted via: ExactAudioCopy v0.95b3
#
DISCID=cc0c0b0f
DTITLE=Various Artist - Searching For The Wrong Eyed Jesus OST
DYEAR=2005
DGENRE=Soundtrack
TTITLE0=Everything Was Stories
TTITLE1=Still Waters - Jim White
TTITLE2=My Sister's Tiny Hand - Handsome Family
TTITLE3=Crossbone Style - Cat Power
TTITLE4=The Last Kind Words - David Johansen and Larry Saltzman
TTITLE5=The Wound That Never Heals - Jim White
TTITLE6=Wayfaring Stranger - Davis Eugene Edwards
TTITLE7=Small Town - Mayor
TTITLE8=Black Soul Choir - 16 Horse Power
TTITLE9=Little Maggie - Lee Sexton
TTITLE10=First There Was - Johnny Dowd with Maggie Brown
TTITLE11=Coo Coo Bird - Clarence Ashley and Doc Watson
TTITLE12=Amazing Grace - Mellissa Swingle
TTITLE13=Christmas Day - Jim White
TTITLE14=Essential Truth - Jim White
EXTD=
EXTT0=
EXTT1=
EXTT2=
EXTT3=
EXTT4=
EXTT5=
EXTT6=
EXTT7=
EXTT8=
EXTT9=
EXTT10=
EXTT11=
EXTT12=
EXTT13=
EXTT14=
PLAYORDER=
